<svg xmlns="http://www.w3.org/2000/svg" xmlns:xlink="http://www.w3.org/1999/xlink" width="1880.57" height="1554.7"><defs><linearGradient id="n"><stop offset="0" stop-color="#fff" stop-opacity=".196"/><stop offset="1" stop-color="#fff" stop-opacity="0"/></linearGradient><linearGradient id="k"><stop offset="0" stop-color="gray"/><stop offset="1" stop-color="gray" stop-opacity="0"/></linearGradient><linearGradient id="l"><stop offset="0" stop-color="#d5d5d7" stop-opacity="0"/><stop offset=".01" stop-color="#d5d5d7"/><stop offset="1" stop-color="#e6e6e6"/></linearGradient><linearGradient id="j"><stop offset="0" stop-color="#a5a6aa"/><stop offset="1" stop-color="#e1e2e4"/></linearGradient><linearGradient id="f"><stop offset="0" stop-opacity=".392"/><stop offset="1" stop-opacity="0"/></linearGradient><linearGradient id="e"><stop offset="0" stop-color="#e6e6e8"/><stop offset="1" stop-color="#6e6e6e"/></linearGradient><linearGradient id="i"><stop offset="0" stop-color="#808185"/><stop offset=".341" stop-color="#c2c3c7"/><stop offset=".673" stop-color="#9c9da1"/><stop offset=".775" stop-color="#7a7b7f"/><stop offset=".913" stop-color="#a2a3a7"/><stop offset="1" stop-color="#b8b9bd"/></linearGradient><filter x="-.111" y="-.922" width="1.222" height="2.844" color-interpolation-filters="sRGB" id="A"><feGaussianBlur stdDeviation="18.423"/></filter><filter x="-.355" y="-1.946" width="1.709" height="4.893" color-interpolation-filters="sRGB" id="C"><feGaussianBlur stdDeviation="74.755"/></filter><clipPath id="B"><path d="M1280 1269.281l-189.188 5.875c1.493 55.45-3.888 117.849-11.562 174.438-1.633 12.016-3.212 25.093-6 37.812-3.662 14.583-9.54 23.81-17.875 30.625-6.983 5.645-15.997 9.38-24.344 14.031-12.347 6.781-22.474 13.575-29.187 18.97-2.823 2.274-5.953 4.885-8.313 8.093-.338.529-.471 1.007-.468 1.438.012 1.743 2.47 2.768 4.625 3.562 6.953 2.263 19.962 3.03 35.593 3.156 8.429.064 18.628-.124 27.938-.062h437.562c9.31-.062 19.51.126 27.938.062 15.63-.127 28.64-.893 35.593-3.156 2.156-.793 4.614-1.819 4.625-3.563 0-.43-.13-.908-.468-1.437-2.36-3.208-5.49-5.82-8.313-8.094-6.713-5.394-16.84-12.188-29.187-18.969-8.347-4.652-17.36-8.386-24.344-14.03-8.336-6.815-14.213-16.043-17.875-30.626-2.788-12.719-4.367-25.796-6-37.812-7.674-56.59-13.055-118.989-11.563-174.438L1280 1269.281z"/></clipPath><clipPath id="z"><path d="M1280 1275.098l-148.864 5.875c1.174 55.449-3.06 117.848-9.098 174.437-1.285 12.016-2.528 25.093-4.721 37.813-2.882 14.582-7.507 23.81-14.066 30.625-5.495 5.645-12.587 9.379-19.155 14.031-9.716 6.78-17.684 13.575-22.966 18.969-2.221 2.274-4.684 4.886-6.541 8.094-.266.528-.371 1.006-.369 1.437.01 1.744 1.943 2.769 3.64 3.563 5.47 2.262 15.707 3.029 28.007 3.156 6.632.064 14.657-.125 21.983-.062h344.3c7.326-.062 15.351.126 21.983.062 12.3-.127 22.536-.894 28.008-3.156 1.696-.794 3.63-1.819 3.639-3.563 0-.43-.103-.909-.369-1.437-1.857-3.208-4.32-5.82-6.54-8.094-5.283-5.394-13.251-12.188-22.967-18.969-6.568-4.652-13.66-8.386-19.155-14.031-6.56-6.815-11.184-16.043-14.065-30.625-2.194-12.72-3.437-25.797-4.722-37.813-6.038-56.589-10.272-118.988-9.098-174.437L1280 1275.098z"/></clipPath><linearGradient id="h"><stop offset="0" stop-opacity=".392"/><stop offset="1" stop-opacity="0"/></linearGradient><linearGradient id="g"><stop offset="0" stop-color="#e6e6e8"/><stop offset="1" stop-color="#6e6e6e"/></linearGradient><linearGradient id="d"><stop offset="0" stop-color="#e6e6e8"/><stop offset="1" stop-color="#6e6e6e"/></linearGradient><linearGradient id="b"><stop offset="0" stop-color="#e6e6e8"/><stop offset="1" stop-color="#6e6e6e"/></linearGradient><clipPath id="p"><path d="M993.06 1560.32c-.825 10.633 5.529 17.077 48.195 16.322H1280v-22.795z" fill="url(#a)"/></clipPath><linearGradient x1="1280" y1="1573.699" x2="1280" y2="1573.717" id="a" xlink:href="#b" gradientUnits="userSpaceOnUse"/><clipPath id="s"><path d="M-1566.94 1560.32c-.825 10.633 5.529 17.077 48.195 16.322H-1280v-22.795z" fill="url(#c)"/></clipPath><linearGradient x1="1280" y1="1573.699" x2="1280" y2="1573.717" id="c" xlink:href="#d" gradientUnits="userSpaceOnUse" gradientTransform="translate(-2560)"/><filter x="-.341" y="-.301" width="1.682" height="1.602" color-interpolation-filters="sRGB" id="w"><feGaussianBlur stdDeviation="15.692"/></filter><filter x="-.341" y="-.301" width="1.682" height="1.602" color-interpolation-filters="sRGB" id="y"><feGaussianBlur stdDeviation="15.692"/></filter><clipPath id="x"><path d="M1175.338 1251.202l189.187 5.875c-1.493 55.45 3.889 117.848 11.563 174.438 1.632 12.015 3.212 25.093 6 37.812 3.662 14.583 9.539 23.81 17.875 30.625 6.983 5.645 15.996 9.379 24.343 14.031 12.348 6.781 22.475 13.575 29.188 18.969 2.822 2.274 5.952 4.886 8.312 8.094.338.528.472 1.007.469 1.437-.012 1.744-2.47 2.77-4.625 3.563-6.953 2.263-19.963 3.03-35.594 3.156-8.428.064-18.628-.124-27.937-.062H956.556c-9.31-.062-19.509.126-27.937.062-15.63-.127-28.64-.893-35.594-3.156-2.155-.794-4.613-1.819-4.625-3.563 0-.43.13-.909.469-1.437 2.36-3.208 5.49-5.82 8.312-8.094 6.713-5.394 16.84-12.188 29.188-18.969 8.347-4.652 17.36-8.386 24.344-14.031 8.335-6.815 14.213-16.042 17.875-30.625 2.787-12.72 4.367-25.797 6-37.812 7.673-56.59 13.055-118.989 11.562-174.438l189.188-5.875z" fill-opacity=".784"/></clipPath><clipPath id="v"><path d="M1280 1269.281l-189.188 5.875c1.493 55.45-3.888 117.849-11.562 174.438-1.633 12.016-3.212 25.093-6 37.812-3.662 14.583-9.54 23.81-17.875 30.625-6.983 5.645-15.997 9.38-24.344 14.031-12.347 6.781-22.474 13.575-29.187 18.97-2.823 2.274-5.953 4.885-8.313 8.093-.338.529-.471 1.007-.468 1.438.012 1.743 2.47 2.768 4.625 3.562 6.953 2.263 19.962 3.03 35.593 3.156 8.429.064 18.628-.124 27.938-.062h437.562c9.31-.062 19.51.126 27.938.062 15.63-.127 28.64-.893 35.593-3.156 2.156-.793 4.614-1.819 4.625-3.563 0-.43-.13-.908-.468-1.437-2.36-3.208-5.49-5.82-8.313-8.094-6.713-5.394-16.84-12.188-29.187-18.969-8.347-4.652-17.36-8.386-24.344-14.03-8.336-6.815-14.213-16.043-17.875-30.626-2.788-12.719-4.367-25.796-6-37.812-7.674-56.59-13.055-118.989-11.563-174.438L1280 1269.281z" fill-opacity=".784"/></clipPath><linearGradient id="m"><stop offset="0" stop-color="#d5d5d7" stop-opacity="0"/><stop offset=".01" stop-color="#d5d5d7"/><stop offset="1" stop-color="#e6e6e6"/></linearGradient><clipPath id="I"><path d="M402.313 22C358.945 22 340 35.264 340 84.313v1055.531h1880V84.313c0-49.05-18.946-62.313-62.313-62.313H531.72z" style="marker:none" color="#000" overflow="visible" enable-background="accumulate"/></clipPath><linearGradient xlink:href="#e" id="o" gradientUnits="userSpaceOnUse" x1="1280" y1="1573.699" x2="1280" y2="1573.717"/><linearGradient xlink:href="#f" id="q" gradientUnits="userSpaceOnUse" gradientTransform="matrix(1.42013 0 0 1 -238.904 27.344)" x1="867.498" y1="1536.531" x2="920.18" y2="1536.531"/><linearGradient xlink:href="#g" id="r" gradientUnits="userSpaceOnUse" gradientTransform="matrix(-1 0 0 1 2560 0)" x1="1280" y1="1573.699" x2="1280" y2="1573.717"/><linearGradient xlink:href="#h" id="t" gradientUnits="userSpaceOnUse" gradientTransform="matrix(1.42013 0 0 1 -2798.904 27.345)" x1="867.498" y1="1536.531" x2="920.18" y2="1536.531"/><linearGradient xlink:href="#i" id="u" gradientUnits="userSpaceOnUse" gradientTransform="translate(-264.906)" x1="1389.379" y1="1325.26" x2="1389.379" y2="1567.295"/><linearGradient xlink:href="#j" id="D" gradientUnits="userSpaceOnUse" x1="376.033" y1="1225.953" x2="2220.571" y2="1223.608"/><linearGradient xlink:href="#k" id="E" gradientUnits="userSpaceOnUse" x1="1184.386" y1="1225.953" x2="1634.068" y2="1225.953"/><linearGradient xlink:href="#j" id="F" gradientUnits="userSpaceOnUse" x1="376.033" y1="1225.953" x2="2220.571" y2="1223.608"/><linearGradient xlink:href="#l" id="G" gradientUnits="userSpaceOnUse" gradientTransform="translate(0 -6.57)" x1="340" y1="1147.632" x2="993.059" y2="1147.632"/><linearGradient xlink:href="#m" id="H" gradientUnits="userSpaceOnUse" gradientTransform="translate(-1986.118 -6.57)" x1="340" y1="1147.632" x2="993.059" y2="1147.632"/><linearGradient xlink:href="#n" id="J" gradientUnits="userSpaceOnUse" x1="1667.91" y1="-132.237" x2="2113.605" y2="1457.561"/></defs><path d="M993.06 1560.32c-.825 10.633 5.529 17.077 48.195 16.322H1280v-22.795z" fill="url(#o)" transform="translate(-340 -22.001)"/><path clip-path="url(#p)" style="marker:none" color="#000" fill="url(#q)" overflow="visible" enable-background="accumulate" d="M993.059 1544.809h74.816v38.132h-74.816z" transform="translate(-340 -22.001)"/><path d="M1566.94 1560.32c.825 10.633-5.529 17.077-48.195 16.322H1280v-22.795z" fill="url(#r)" transform="translate(-340 -22.001)"/><path transform="matrix(-1 0 0 1 -340 -22.001)" clip-path="url(#s)" style="marker:none" color="#000" fill="url(#t)" overflow="visible" enable-background="accumulate" d="M-1566.941 1544.809h74.816v38.132h-74.816z"/><path d="M1280 1269.281l-189.188 5.875c1.493 55.45-3.888 117.849-11.562 174.438-1.633 12.016-3.212 25.093-6 37.812-3.662 14.583-9.54 23.81-17.875 30.625-6.983 5.645-15.997 9.38-24.344 14.031-12.347 6.781-22.474 13.575-29.187 18.97-2.823 2.274-5.953 4.885-8.313 8.093-.338.529-.471 1.007-.468 1.438.012 1.743 2.47 2.768 4.625 3.562 6.953 2.263 19.962 3.03 35.593 3.156 8.429.064 18.628-.124 27.938-.062h437.562c9.31-.062 19.51.126 27.938.062 15.63-.127 28.64-.893 35.593-3.156 2.156-.793 4.614-1.819 4.625-3.563 0-.43-.13-.908-.468-1.437-2.36-3.208-5.49-5.82-8.313-8.094-6.713-5.394-16.84-12.188-29.187-18.969-8.347-4.652-17.36-8.386-24.344-14.03-8.336-6.815-14.213-16.043-17.875-30.626-2.788-12.719-4.367-25.796-6-37.812-7.674-56.59-13.055-118.989-11.563-174.438L1280 1269.281z" fill="url(#u)" transform="translate(-340 -22.001)"/><g fill="#fff" fill-opacity=".784"><path d="M993.06 1498.135c31.353-4.69 52.55 13.472 77.267 23.719-36.823 69.518-73.646 79.75-110.47 100.707l9.572-93.662z" clip-path="url(#v)" filter="url(#w)" transform="translate(-340 -22.001)"/><path d="M888.397 1480.055c31.354-4.689 52.551 13.473 77.267 23.72-36.823 69.518-73.646 79.75-110.469 100.706l9.571-93.661z" transform="matrix(-1 0 0 1 2115.337 -3.922)" clip-path="url(#x)" filter="url(#y)"/></g><rect width="398.039" height="47.966" rx="199.02" ry="23.983" x="1080.98" y="1435.988" transform="matrix(1.27087 0 0 1 -686.717 -27.817)" clip-path="url(#z)" style="marker:none" color="#000" fill="#fff" fill-opacity=".588" overflow="visible" filter="url(#A)" enable-background="accumulate"/><rect width="505.857" height="92.18" rx="252.929" ry="46.09" x="1027.071" y="1403.216" clip-path="url(#B)" style="marker:none" color="#000" fill="#fff" overflow="visible" filter="url(#C)" enable-background="accumulate" transform="translate(-340 -22.001)"/><path d="M62.312-.001C18.945-.001-.001 13.263-.001 62.312v1165.437c0 49.049 18.946 62.313 62.313 62.313h1755.375c43.366 0 62.312-13.264 62.312-62.313V62.312c0-49.05-18.946-62.313-62.312-62.313H62.312z" style="marker:none" color="#000" fill="#c9a700" fill-opacity=".489" overflow="visible" enable-background="accumulate"/><path d="M340 1139.844v109.906c0 49.049 18.946 62.313 62.313 62.313h1755.373c43.367 0 62.313-13.264 62.313-62.313v-109.906z" style="marker:none" color="#000" fill="url(#D)" overflow="visible" enable-background="accumulate" transform="translate(-340 -22.001)"/><path d="M340 1139.844v109.906c0 49.049 18.946 62.313 62.313 62.313h1755.373c43.367 0 62.313-13.264 62.313-62.313v-109.906z" style="marker:none" color="#000" fill="url(#E)" overflow="visible" enable-background="accumulate" transform="translate(-340 -22.001)"/><path d="M340 1137.499v109.906c0 49.049 18.952 62.313 62.331 62.313H2158.24c43.38 0 62.331-13.264 62.331-62.313v-109.906z" style="marker:none" color="#000" fill="url(#F)" overflow="visible" enable-background="accumulate" transform="translate(-340 -22.001)"/><g color="#000"><path style="marker:none" fill="url(#G)" overflow="visible" enable-background="accumulate" d="M340 1139.852h653.059v2.421H340z" transform="translate(-340 -22.001)"/><path transform="matrix(-1 0 0 1 -340 -22.001)" style="marker:none" fill="url(#H)" overflow="visible" enable-background="accumulate" d="M-1646.118 1139.852h653.059v2.421h-653.059z"/></g><path d="M940.825 1177.782c1.599 0 4.21-.621 7.834-1.865 3.623-1.243 6.767-1.865 9.431-1.865 4.37 0 8.26 1.173 11.67 3.517 1.919 1.35 3.82 3.18 5.702 5.489-2.842 2.416-4.92 4.565-6.235 6.448-2.38 3.41-3.57 7.176-3.57 11.297 0 4.511 1.261 8.579 3.784 12.202 2.522 3.624 5.4 5.915 8.632 6.875-1.35 4.37-3.588 8.934-6.714 13.694-4.725 7.14-9.414 10.711-14.068 10.711-1.847 0-4.396-.586-7.647-1.758-3.25-1.173-5.995-1.759-8.233-1.759-2.238 0-4.84.613-7.806 1.839-2.967 1.225-5.373 1.838-7.22 1.838-5.578 0-11.049-4.725-16.413-14.174-5.364-9.343-8.047-18.509-8.047-27.497 0-8.348 2.052-15.151 6.155-20.409 4.103-5.257 9.281-7.886 15.533-7.886 2.665 0 5.889.55 9.672 1.652 3.783 1.1 6.297 1.652 7.54 1.651zm16.68-22.007c0 2.273-.534 4.76-1.6 7.46-1.065 2.7-2.753 5.204-5.062 7.514-1.99 1.953-3.96 3.268-5.915 3.943-1.243.39-3.126.693-5.648.906.071-5.4 1.483-10.072 4.236-14.015 2.753-3.943 7.31-6.643 13.668-8.1.143.462.231.87.267 1.226.035.355.053.71.053 1.066z" font-size="109.133" font-weight="400" letter-spacing="0" word-spacing="0" stroke="#dcdcdc" stroke-width="1.5" font-family="Helvetica"/><path d="M62.312-.001C18.945-.001-.001 13.263-.001 62.312v1055.531h1880V62.312c0-49.05-18.946-62.313-62.312-62.313H191.718z" style="marker:none" color="#000" overflow="visible" enable-background="accumulate"/><path style="marker:none" color="#000" overflow="visible" enable-background="accumulate" d="M79.132 74.38h1721.734v969.082H79.132z"/><path d="M1420.09 9.772l632.525 1414.047 333.258 21.227 6.368-1511.336z" clip-path="url(#I)" fill="url(#J)" transform="translate(-340 -22.001)"/></svg>